<?xml version="1.0" standalone="no"?>
<!DOCTYPE svg PUBLIC "-//W3C//DTD SVG 20010904//EN"
 "http://www.w3.org/TR/2001/REC-SVG-20010904/DTD/svg10.dtd">
<svg version="1.0" xmlns="http://www.w3.org/2000/svg"
 width="700.000000pt" height="700.000000pt" viewBox="0 0 700.000000 700.000000"
 preserveAspectRatio="xMidYMid meet">
<metadata>
Created by potrace 1.11, written by Peter Selinger 2001-2013
</metadata>
<g transform="translate(0.000000,700.000000) scale(0.100000,-0.100000)"
fill="#000000" stroke="none">
<path d="M600 5984 c-298 -64 -524 -291 -584 -586 -14 -69 -16 -278 -16 -1898
0 -1624 2 -1829 16 -1898 61 -296 290 -525 586 -586 69 -14 360 -16 2898 -16
2538 0 2829 2 2898 16 278 57 492 258 579 543 16 52 18 190 21 1906 2 1665 1
1858 -13 1930 -60 298 -289 528 -587 589 -69 14 -365 16 -2905 15 -2385 0
-2838 -3 -2893 -15z m5735 -501 c29 -9 66 -33 90 -58 80 -79 75 -3 75 -1229
l0 -1091 -807 806 c-737 736 -812 808 -857 823 -63 20 -109 20 -172 0 -45 -15
-137 -104 -1106 -1073 l-1058 -1056 -432 431 c-388 387 -438 433 -482 448 -27
9 -66 16 -86 16 -20 0 -59 -7 -86 -16 -44 -15 -94 -61 -482 -448 l-432 -431 2
1360 3 1360 28 47 c31 53 79 94 134 114 31 11 523 13 2829 14 2572 0 2794 -1
2839 -17z"/>
<path d="M2100 4984 c-298 -64 -524 -291 -584 -586 -83 -402 181 -799 586
-882 297 -61 608 69 773 324 80 123 112 220 122 370 31 483 -424 876 -897 774z"/>
</g>
</svg>
